/* XPM */
static char * C:\Users\giaki\Documents\GitHub\BitcoinReal\share\pixmaps\btcr32_xpm[] = {
"32 32 89 1",
" 	c None",
".	c #000000",
"+	c #181818",
"@	c #595959",
"#	c #3F3F3F",
"$	c #404040",
"%	c #515151",
"&	c #DADADA",
"*	c #B0B0B0",
"=	c #101010",
"-	c #555555",
";	c #DDDDDD",
">	c #B5B5B5",
",	c #030303",
"'	c #171717",
")	c #575757",
"!	c #565656",
"~	c #7E7E7E",
"{	c #DEDEDE",
"]	c #C1C1C1",
"^	c #5D5D5D",
"/	c #C2C2C2",
"(	c #7B7B7B",
"_	c #3A3A3A",
":	c #060606",
"<	c #4E4E4E",
"[	c #D5D5D5",
"}	c #E2E2E2",
"|	c #E1E1E1",
"1	c #D4D4D4",
"2	c #585858",
"3	c #AFAFAF",
"4	c #C0C0C0",
"5	c #C6C6C6",
"6	c #C5C5C5",
"7	c #E0E0E0",
"8	c #D7D7D7",
"9	c #5A5A5A",
"0	c #070707",
"a	c #202020",
"b	c #B6B6B6",
"c	c #B9B9B9",
"d	c #141414",
"e	c #020202",
"f	c #3C3C3C",
"g	c #8B8B8B",
"h	c #DCDCDC",
"i	c #B3B3B3",
"j	c #ABABAB",
"k	c #040404",
"l	c #BBBBBB",
"m	c #BFBFBF",
"n	c #222222",
"o	c #6A6A6A",
"p	c #B7B7B7",
"q	c #DFDFDF",
"r	c #D1D1D1",
"s	c #4C4C4C",
"t	c #D6D6D6",
"u	c #B4B4B4",
"v	c #BABABA",
"w	c #0A0A0A",
"x	c #383838",
"y	c #939393",
"z	c #080808",
"A	c #1D1D1D",
"B	c #C3C3C3",
"C	c #C8C8C8",
"D	c #010101",
"E	c #2D2D2D",
"F	c #CCCCCC",
"G	c #191919",
"H	c #292929",
"I	c #4D4D4D",
"J	c #686868",
"K	c #AEAEAE",
"L	c #9F9F9F",
"M	c #CDCDCD",
"N	c #D2D2D2",
"O	c #CECECE",
"P	c #DBDBDB",
"Q	c #999999",
"R	c #818181",
"S	c #606060",
"T	c #7D7D7D",
"U	c #4F4F4F",
"V	c #B1B1B1",
"W	c #5C5C5C",
"X	c #414141",
"            ........            ",
"         ..............         ",
"       ..................       ",
"      ....................      ",
"     ......................     ",
"    ........+@#.$@+.........    ",
"   .........%&*=*&%..........   ",
"  ..........-;>,>;-...........  ",
"  ......'%)!~{]^/{(_:.........  ",
" .......<[;;{}|;|}{1>2......... ",
" ......._34{}};56[7}}89........ ",
" ........0ab}}cdefgh}}i0....... ",
"..........,j}}>k..'l}}mk........",
"..........kj}}>...n]}}30........",
"..........kj}}42!opq}r%.........",
"..........kj}}7h;q}}|ms.........",
"..........kj}}t>uvrq}|[2........",
"..........kj}}bwkexy{}}cz.......",
"..........kj}}>k...AB}}Ck.......",
"..........Dj}}>,...EF}}Bk.......",
" ........G$c}}lnHIJv7}}K0...... ",
" .......,L87}}qMN&{}}|O%....... ",
" .......wm{{q}|{|}{PFQ#........ ",
"  .......$9@RqBSB{TUH.........  ",
"  ..........-;>,>h-...........  ",
"   .........%PV=V&%..........   ",
"    ........GWX.XWG.........    ",
"     ......................     ",
"      ....................      ",
"       ..................       ",
"         ..............         ",
"            ........            "};
