/* XPM */
static char * C:\Users\giaki\Documents\GitHub\BitcoinReal\share\pixmaps\btcr16_xpm[] = {
"16 16 47 1",
" 	c None",
".	c #000000",
"+	c #4E4E4E",
"@	c #424242",
"#	c #616161",
"$	c #191919",
"%	c #B0B0B0",
"&	c #969696",
"*	c #D3D3D3",
"=	c #434343",
"-	c #858585",
";	c #B5B5B5",
">	c #D1D1D1",
",	c #C8C8C8",
"'	c #DCDCDC",
")	c #B2B2B2",
"!	c #7B7B7B",
"~	c #6E6E6E",
"{	c #B7B7B7",
"]	c #E2E2E2",
"^	c #BEBEBE",
"/	c #A5A5A5",
"(	c #D4D4D4",
"_	c #7C7C7C",
":	c #757575",
"<	c #989898",
"[	c #979797",
"}	c #C6C6C6",
"|	c #B8B8B8",
"1	c #DADADA",
"2	c #4D4D4D",
"3	c #B6B6B6",
"4	c #929292",
"5	c #CCCCCC",
"6	c #0C0C0C",
"7	c #DDDDDD",
"8	c #E0E0E0",
"9	c #6D6D6D",
"0	c #C1C1C1",
"a	c #A9A9A9",
"b	c #CACACA",
"c	c #838383",
"d	c #B9B9B9",
"e	c #CBCBCB",
"f	c #2A2A2A",
"g	c #4F4F4F",
"h	c #626262",
"     ......     ",
"   ..........   ",
"  ....+@#$....  ",
" .....%&*=..... ",
" ...-;>,')!.... ",
"....~{]^/(]_....",
".....:]&.<][....",
".....:]}|'12....",
".....:]343]5....",
".....:]&.678....",
"....9^]0ab]0....",
" ...cd*e7{&f... ",
" .....%&*=..... ",
"  ....g=h$....  ",
"   ..........   ",
"     ......     "};
