/* XPM */
static char * C:\Users\giaki\Documents\GitHub\BitcoinReal\share\pixmaps\btcr128_xpm[] = {
"128 128 73 1",
" 	c None",
".	c #000000",
"+	c #989898",
"@	c #B8B8B8",
"#	c #B7B7B7",
"$	c #979797",
"%	c #D3D3D3",
"&	c #E2E2E2",
"*	c #D1D1D1",
"=	c #C9C9C9",
"-	c #BFBFBF",
";	c #B4B4B4",
">	c #A9A9A9",
",	c #DDDDDD",
"'	c #B9B9B9",
")	c #848484",
"!	c #DFDFDF",
"~	c #B2B2B2",
"{	c #919191",
"]	c #D4D4D4",
"^	c #DBDBDB",
"/	c #C0C0C0",
"(	c #B6B6B6",
"_	c #C1C1C1",
":	c #BBBBBB",
"<	c #C2C2C2",
"[	c #CECECE",
"}	c #818181",
"|	c #858585",
"1	c #DEDEDE",
"2	c #8A8A8A",
"3	c #878787",
"4	c #D5D5D5",
"5	c #8D8D8D",
"6	c #ABABAB",
"7	c #AFAFAF",
"8	c #DCDCDC",
"9	c #AEAEAE",
"0	c #CFCFCF",
"a	c #A8A8A8",
"b	c #939393",
"c	c #C4C4C4",
"d	c #D6D6D6",
"e	c #BDBDBD",
"f	c #D7D7D7",
"g	c #E0E0E0",
"h	c #808080",
"i	c #CACACA",
"j	c #C8C8C8",
"k	c #C6C6C6",
"l	c #C5C5C5",
"m	c #CCCCCC",
"n	c #999999",
"o	c #C7C7C7",
"p	c #DADADA",
"q	c #E1E1E1",
"r	c #D2D2D2",
"s	c #D0D0D0",
"t	c #868686",
"u	c #B3B3B3",
"v	c #888888",
"w	c #8C8C8C",
"x	c #D8D8D8",
"y	c #ADADAD",
"z	c #838383",
"A	c #CDCDCD",
"B	c #AAAAAA",
"C	c #CBCBCB",
"D	c #515151",
"E	c #727272",
"F	c #B0B0B0",
"G	c #898989",
"H	c #BCBCBC",
"                                                        ................                                                        ",
"                                                  ............................                                                  ",
"                                              ....................................                                              ",
"                                           ..........................................                                           ",
"                                        ................................................                                        ",
"                                      ....................................................                                      ",
"                                    ........................................................                                    ",
"                                  ............................................................                                  ",
"                                ................................................................                                ",
"                              ....................................................................                              ",
"                             ......................................................................                             ",
"                           ..........................................................................                           ",
"                          ............................................................................                          ",
"                         ..............................................................................                         ",
"                       ..................................................................................                       ",
"                      ....................................................................................                      ",
"                     ......................................................................................                     ",
"                    ........................................................................................                    ",
"                   ..........................................................................................                   ",
"                  ............................................................................................                  ",
"                 ..............................................................................................                 ",
"                ................................................................................................                ",
"               ....................................+@@@@@@#......#@@@@@@$........................................               ",
"              .....................................%&&&&&&&......&&&&&&&*.........................................              ",
"              .....................................%&&&&&&&......&&&&&&&*.........................................              ",
"             ......................................%&&&&&&&......&&&&&&&*..........................................             ",
"            .......................................%&&&&&&&......&&&&&&&*...........................................            ",
"           ........................................%&&&&&&&......&&&&&&&*............................................           ",
"           ........................................%&&&&&&&......&&&&&&&*............................................           ",
"          .........................................%&&&&&&&......&&&&&&&*.............................................          ",
"         ..........................................%&&&&&&&......&&&&&&&*..............................................         ",
"         ..........................................%&&&&&&&......&&&&&&&*..............................................         ",
"        ...........................................%&&&&&&&......&&&&&&&*...............................................        ",
"        ...........................................%&&&&&&&......&&&&&&&*...............................................        ",
"       ............................................%&&&&&&&......&&&&&&&*................................................       ",
"       .............................&&&&&&&&&&&&&&&&&&&&&&&&&&&&&&&&&&&&&=-;>............................................       ",
"      ..............................&&&&&&&&&&&&&&&&&&&&&&&&&&&&&&&&&&&&&&&&&&&,')........................................      ",
"      ..............................&&&&&&&&&&&&&&&&&&&&&&&&&&&&&&&&&&&&&&&&&&&&&&!~......................................      ",
"     ...............................&&&&&&&&&&&&&&&&&&&&&&&&&&&&&&&&&&&&&&&&&&&&&&&&&{.....................................     ",
"     ...............................&&&&&&&&&&&&&&&&&&&&&&&&&&&&&&&&&&&&&&&&&&&&&&&&&&]....................................     ",
"    ................................&&&&&&&&&&&&&&&&&&&&&&&&&&&&&&&&&&&&&&&&&&&&&&&&&&&,....................................    ",
"    ................................&&&&&&&&&&&&&&&&&&&&&&&&&&&&&&&&&&&&&&&&&&&&&&&&&&&&^...................................    ",
"    ................................&&&&&&&&&&&&&&&&&&&&&&&&&&&&&&&&&&&&&&&&&&&&&&&&&&&&&/..................................    ",
"   ........................................(&&&&&&&&&&&&&&&=_:@#@:<[&&&&&&&&&&&&&&&&&&&&&&...................................   ",
"   .........................................}&&&&&&&&&&&&&&...........|#1&&&&&&&&&&&&&&&&&:..................................   ",
"   ..........................................@&&&&&&&&&&&&&..............2,&&&&&&&&&&&&&&&&..................................   ",
"  ...........................................3&&&&&&&&&&&&&................4&&&&&&&&&&&&&&&...................................  ",
"  ............................................&&&&&&&&&&&&&.................1&&&&&&&&&&&&&&3..................................  ",
"  ............................................&&&&&&&&&&&&&.................5&&&&&&&&&&&&&&6..................................  ",
"  ............................................&&&&&&&&&&&&&..................&&&&&&&&&&&&&&7..................................  ",
" .............................................&&&&&&&&&&&&&..................8&&&&&&&&&&&&&9................................... ",
" .............................................&&&&&&&&&&&&&..................0&&&&&&&&&&&&&a................................... ",
" .............................................&&&&&&&&&&&&&..................1&&&&&&&&&&&&&.................................... ",
" .............................................&&&&&&&&&&&&&..................&&&&&&&&&&&&&&.................................... ",
" .............................................&&&&&&&&&&&&&.................b&&&&&&&&&&&&&c.................................... ",
" .............................................&&&&&&&&&&&&&.................&&&&&&&&&&&&&&).................................... ",
"..............................................&&&&&&&&&&&&&...............},&&&&&&&&&&&&&d......................................",
"..............................................&&&&&&&&&&&&&..............e&&&&&&&&&&&&&&&.......................................",
"..............................................&&&&&&&&&&&&&...........7f&&&&&&&&&&&&&&&gh.......................................",
"..............................................&&&&&&&&&&&&&ijklljm4&&&&&&&&&&&&&&&&&&&d.........................................",
"..............................................&&&&&&&&&&&&&&&&&&&&&&&&&&&&&&&&&&&&&&&n..........................................",
"..............................................&&&&&&&&&&&&&&&&&&&&&&&&&&&&&&&&&&&&&&&o5.........................................",
"..............................................&&&&&&&&&&&&&&&&&&&&&&&&&&&&&&&&&&&&&&&&&&<.......................................",
"..............................................&&&&&&&&&&&&&&&&&&&&&&&&&&&&&&&&&&&&&&&&&&&&-.....................................",
"..............................................&&&&&&&&&&&&&&&&&&&&&&&&&&&&&&&&&&&&&&&&&&&&&p....................................",
"..............................................&&&&&&&&&&&&&&&&&&&&&&&&&&&&&&&&&&&&&&&&&&&&&&8...................................",
"..............................................&&&&&&&&&&&&&qfrs[[s4g&&&&&&&&&&&&&&&&&&&&&&&&&r..................................",
"..............................................&&&&&&&&&&&&&............tu]&&&&&&&&&&&&&&&&&&&&v.................................",
"..............................................&&&&&&&&&&&&&................wf&&&&&&&&&&&&&&&&&x.................................",
"..............................................&&&&&&&&&&&&&..................2&&&&&&&&&&&&&&&&&.................................",
"..............................................&&&&&&&&&&&&&....................1&&&&&&&&&&&&&&&y................................",
"..............................................&&&&&&&&&&&&&....................z&&&&&&&&&&&&&&&_................................",
" .............................................&&&&&&&&&&&&&.....................A&&&&&&&&&&&&&&]............................... ",
" .............................................&&&&&&&&&&&&&.....................B&&&&&&&&&&&&&&&............................... ",
" .............................................&&&&&&&&&&&&&......................&&&&&&&&&&&&&&&............................... ",
" .............................................&&&&&&&&&&&&&......................&&&&&&&&&&&&&&&............................... ",
" .............................................&&&&&&&&&&&&&.....................t&&&&&&&&&&&&&&4............................... ",
" .............................................&&&&&&&&&&&&&.....................u&&&&&&&&&&&&&&j............................... ",
"  ............................................&&&&&&&&&&&&&.....................,&&&&&&&&&&&&&&'..............................  ",
"  ............................................&&&&&&&&&&&&&....................n&&&&&&&&&&&&&&&B..............................  ",
"  ............................................&&&&&&&&&&&&&...................b&&&&&&&&&&&&&&&&...............................  ",
"  ...........................................t&&&&&&&&&&&&&..................C&&&&&&&&&&&&&&&&&...............................  ",
"   .........................................._&&&&&&&&&&&&&...............3c&&&&&&&&&&&&&&&&&&@..............................   ",
"   .........................................'&&&&&&&&&&&&&&...........>@p&&&&&&&&&&&&&&&&&&&&&...............................   ",
"   ..................................8&&&&&&&&&&&&&&&&&&&&&&&&&&&&&&&&&&&&&&&&&&&&&&&&&&&&&&&e...............................   ",
"    .................................&&&&&&&&&&&&&&&&&&&&&&&&&&&&&&&&&&&&&&&&&&&&&&&&&&&&&&&8...............................    ",
"    .................................&&&&&&&&&&&&&&&&&&&&&&&&&&&&&&&&&&&&&&&&&&&&&&&&&&&&&&&D...............................    ",
"    ................................3&&&&&&&&&&&&&&&&&&&&&&&&&&&&&&&&&&&&&&&&&&&&&&&&&&&&&1E................................    ",
"     ...............................F&&&&&&&&&&&&&&&&&&&&&&&&&&&&&&&&&&&&&&&&&&&&&&&&&&&&s.................................     ",
"     ...............................<&&&&&&&&&&&&&&&&&&&&&&&&&&&&&&&&&&&&&&&&&&&&&&&&&&^v..................................     ",
"      ..............................,&&&&&&&&&&&&&&&&&&&&&&&&&&&&&&&&&&&&&&&&&&&&&&&&fG...................................      ",
"      ..............................&&&&&&&&&&&&&&&&&&&&&&&&&&&&&&&&&&&&&&&&&&&&&&A9......................................      ",
"       .............................&&&&&&&&&&&&&&&&&&&&&&&&&&&&&&&&&&&&&&&d=HFv.........................................       ",
"       ............................................8&&&&&&&......&&&&&&&%................................................       ",
"        ...........................................%&&&&&&&......&&&&&&&*...............................................        ",
"        ...........................................%&&&&&&&......&&&&&&&*...............................................        ",
"         ..........................................%&&&&&&&......&&&&&&&*..............................................         ",
"         ..........................................%&&&&&&&......&&&&&&&*..............................................         ",
"          .........................................%&&&&&&&......&&&&&&&*.............................................          ",
"           ........................................%&&&&&&&......&&&&&&&*............................................           ",
"           ........................................%&&&&&&&......&&&&&&&*............................................           ",
"            .......................................%&&&&&&&......&&&&&&&*...........................................            ",
"             ......................................%&&&&&&&......&&&&&&&*..........................................             ",
"              .....................................%&&&&&&&......&&&&&&&*.........................................              ",
"              .....................................%&&&&&&&......&&&&&&&*.........................................              ",
"               .................................... xxxxxxf......fxxxxxx ........................................               ",
"                ................................................................................................                ",
"                 ..............................................................................................                 ",
"                  ............................................................................................                  ",
"                   ..........................................................................................                   ",
"                    ........................................................................................                    ",
"                     ......................................................................................                     ",
"                      ....................................................................................                      ",
"                       ..................................................................................                       ",
"                         ..............................................................................                         ",
"                          ............................................................................                          ",
"                           ..........................................................................                           ",
"                             ......................................................................                             ",
"                              ....................................................................                              ",
"                                ................................................................                                ",
"                                  ............................................................                                  ",
"                                    ........................................................                                    ",
"                                      ....................................................                                      ",
"                                        ................................................                                        ",
"                                           ..........................................                                           ",
"                                              ....................................                                              ",
"                                                  ............................                                                  ",
"                                                        ................                                                        "};
