/* XPM */
static char * C:\Users\giaki\Documents\GitHub\BitcoinReal\share\pixmaps\btcr64_xpm[] = {
"64 64 6 1",
" 	c None",
".	c #000000",
"+	c #E2E2E2",
"@	c #DDDDDD",
"#	c #E0E0E0",
"$	c #E1E1E1",
"                          ............                          ",
"                      ....................                      ",
"                    ........................                    ",
"                 ..............................                 ",
"                ................................                ",
"              ....................................              ",
"             ......................................             ",
"           ..........................................           ",
"          ............................................          ",
"         ..............................................         ",
"        ................................................        ",
"       ...................   ....   .....................       ",
"       ...................+++....+++.....................       ",
"      ....................+++....+++......................      ",
"     .....................+++....+++.......................     ",
"     .....................+++....+++.......................     ",
"    ......................+++....+++........................    ",
"   ................       +++    +++ ........................   ",
"   ...............+++++++++++++++++++++  ....................   ",
"   ...............++++++++++++++++++++++++ ..................   ",
"  ................+++++++++++++++++++++++++ ..................  ",
"  ................    +++++++      +++++++++ .................  ",
" ..................... ++++++ ...... @+++++++.................. ",
" ......................++++++.........#++++++ ................. ",
" ......................++++++......... ++++++ ................. ",
" ......................++++++..........++++++ ................. ",
".......................++++++......... ++++++ ..................",
".......................++++++......... ++++++...................",
".......................++++++........ ++++++ ...................",
".......................++++++ ....  +++++++ ....................",
".......................+++++++++++++++++++ .....................",
".......................++++++++++++++++++++@ ...................",
".......................++++++++++++++++++++++ ..................",
".......................++++++ ....   $++++++++ .................",
".......................++++++......... $+++++++ ................",
".......................++++++...........+++++++ ................",
".......................++++++........... ++++++ ................",
".......................++++++........... ++++++ ................",
" ......................++++++........... ++++++ ............... ",
" ......................++++++........... ++++++ ............... ",
" ......................++++++.......... +++++++ ............... ",
" ..................... ++++++ ......  +++++++++................ ",
"  .................  #++++++++    $+++++++++++ ...............  ",
"  ................ ++++++++++++++++++++++++++ ................  ",
"   ............... ++++++++++++++++++++++++  ................   ",
"   ............... +++++++++++++++++++++   ..................   ",
"   ...............        +++    +++ ........................   ",
"    ......................+++ .. +++........................    ",
"     .....................+++....+++.......................     ",
"     .....................+++....+++.......................     ",
"      ....................+++....+++......................      ",
"       ...................+++....+++.....................       ",
"       ...................   ....   .....................       ",
"        ................................................        ",
"         ..............................................         ",
"          ............................................          ",
"           ..........................................           ",
"             ......................................             ",
"              ....................................              ",
"                ................................                ",
"                 ..............................                 ",
"                    ........................                    ",
"                      ....................                      ",
"                          ............                          "};
